<mxfile host="app.diagrams.net" modified="2023-12-05T23:41:56.954Z" agent="Mozilla/5.0 (Windows NT 10.0; Win64; x64) AppleWebKit/537.36 (KHTML, like Gecko) Chrome/119.0.0.0 Safari/537.36" etag="fLSySUrFxevTJdW9sd_h" version="22.1.5" type="device">
  <diagram name="Page-1" id="8F9aHh7sJp7RoNNNujaK">
    <mxGraphModel dx="1114" dy="602" grid="1" gridSize="10" guides="1" tooltips="1" connect="1" arrows="1" fold="1" page="1" pageScale="1" pageWidth="850" pageHeight="1100" math="0" shadow="0">
      <root>
        <mxCell id="0" />
        <mxCell id="1" parent="0" />
        <mxCell id="yhYVo-RYtQYVv0zhypV3-1" value="" style="rounded=0;whiteSpace=wrap;html=1;fillColor=none;" parent="1" vertex="1">
          <mxGeometry x="460" y="90" width="120" height="140" as="geometry" />
        </mxCell>
        <mxCell id="AxZ2EuHnLiXCbniGBvbW-13" value="" style="endArrow=classicThin;startArrow=classicThin;html=1;rounded=1;startFill=1;endFill=1;" parent="1" source="_7YsXW8xgozTR5B0CZaP-13" target="_7YsXW8xgozTR5B0CZaP-12" edge="1">
          <mxGeometry width="50" height="50" relative="1" as="geometry">
            <mxPoint x="100" y="122" as="sourcePoint" />
            <mxPoint x="100" y="82" as="targetPoint" />
          </mxGeometry>
        </mxCell>
        <mxCell id="AxZ2EuHnLiXCbniGBvbW-14" value="" style="endArrow=classicThin;startArrow=classicThin;html=1;rounded=1;startFill=1;endFill=1;" parent="1" source="_7YsXW8xgozTR5B0CZaP-12" target="_7YsXW8xgozTR5B0CZaP-15" edge="1">
          <mxGeometry width="50" height="50" relative="1" as="geometry">
            <mxPoint x="150" y="72" as="sourcePoint" />
            <mxPoint x="190" y="67.71428571428567" as="targetPoint" />
          </mxGeometry>
        </mxCell>
        <mxCell id="AxZ2EuHnLiXCbniGBvbW-15" value="" style="endArrow=classicThin;startArrow=classicThin;html=1;rounded=1;startFill=1;endFill=1;" parent="1" source="_7YsXW8xgozTR5B0CZaP-13" target="_7YsXW8xgozTR5B0CZaP-16" edge="1">
          <mxGeometry width="50" height="50" relative="1" as="geometry">
            <mxPoint x="150" y="132" as="sourcePoint" />
            <mxPoint x="230" y="122" as="targetPoint" />
          </mxGeometry>
        </mxCell>
        <mxCell id="AxZ2EuHnLiXCbniGBvbW-16" value="" style="endArrow=classicThin;startArrow=classicThin;html=1;rounded=1;startFill=1;endFill=1;" parent="1" source="_7YsXW8xgozTR5B0CZaP-8" target="_7YsXW8xgozTR5B0CZaP-13" edge="1">
          <mxGeometry width="50" height="50" relative="1" as="geometry">
            <mxPoint x="100" y="200" as="sourcePoint" />
            <mxPoint x="100" y="160" as="targetPoint" />
          </mxGeometry>
        </mxCell>
        <mxCell id="AxZ2EuHnLiXCbniGBvbW-18" value="" style="endArrow=classicThin;startArrow=classicThin;html=1;rounded=1;startFill=1;endFill=1;" parent="1" source="_7YsXW8xgozTR5B0CZaP-2" target="_7YsXW8xgozTR5B0CZaP-8" edge="1">
          <mxGeometry width="50" height="50" relative="1" as="geometry">
            <mxPoint x="100" y="280" as="sourcePoint" />
            <mxPoint x="100" y="240" as="targetPoint" />
          </mxGeometry>
        </mxCell>
        <mxCell id="AxZ2EuHnLiXCbniGBvbW-19" value="" style="endArrow=classicThin;startArrow=classicThin;html=1;rounded=1;startFill=1;endFill=1;" parent="1" source="_7YsXW8xgozTR5B0CZaP-12" target="_7YsXW8xgozTR5B0CZaP-2" edge="1">
          <mxGeometry width="50" height="50" relative="1" as="geometry">
            <mxPoint x="100" y="20" as="sourcePoint" />
            <mxPoint x="100" y="300" as="targetPoint" />
            <Array as="points">
              <mxPoint x="100" y="20" />
              <mxPoint x="40" y="20" />
              <mxPoint x="40" y="340" />
              <mxPoint x="100" y="340" />
            </Array>
          </mxGeometry>
        </mxCell>
        <mxCell id="AxZ2EuHnLiXCbniGBvbW-24" value="" style="endArrow=classicThin;startArrow=classicThin;html=1;rounded=1;startFill=1;endFill=1;" parent="1" source="_7YsXW8xgozTR5B0CZaP-2" target="_7YsXW8xgozTR5B0CZaP-5" edge="1">
          <mxGeometry width="50" height="50" relative="1" as="geometry">
            <mxPoint x="150" y="290" as="sourcePoint" />
            <mxPoint x="190" y="290" as="targetPoint" />
          </mxGeometry>
        </mxCell>
        <mxCell id="AxZ2EuHnLiXCbniGBvbW-31" value="" style="endArrow=classicThin;startArrow=classicThin;html=1;rounded=1;startFill=1;endFill=1;" parent="1" source="_7YsXW8xgozTR5B0CZaP-15" target="_7YsXW8xgozTR5B0CZaP-17" edge="1">
          <mxGeometry width="50" height="50" relative="1" as="geometry">
            <mxPoint x="290" y="66.66666666666663" as="sourcePoint" />
            <mxPoint x="370" y="60" as="targetPoint" />
          </mxGeometry>
        </mxCell>
        <mxCell id="AxZ2EuHnLiXCbniGBvbW-32" value="" style="endArrow=classicThin;startArrow=classicThin;html=1;rounded=1;startFill=1;endFill=1;" parent="1" source="_7YsXW8xgozTR5B0CZaP-8" target="_7YsXW8xgozTR5B0CZaP-11" edge="1">
          <mxGeometry width="50" height="50" relative="1" as="geometry">
            <mxPoint x="150" y="230" as="sourcePoint" />
            <mxPoint x="190" y="226.42857142857144" as="targetPoint" />
          </mxGeometry>
        </mxCell>
        <mxCell id="QvtBToxFsBq5mHNI2KZm-1" value="" style="endArrow=classicThin;html=1;rounded=0;endFill=1;" parent="1" source="_7YsXW8xgozTR5B0CZaP-16" target="_7YsXW8xgozTR5B0CZaP-8" edge="1">
          <mxGeometry width="50" height="50" relative="1" as="geometry">
            <mxPoint x="380" y="166.45161290322574" as="sourcePoint" />
            <mxPoint x="120" y="200" as="targetPoint" />
          </mxGeometry>
        </mxCell>
        <mxCell id="QvtBToxFsBq5mHNI2KZm-3" value="modify" style="edgeLabel;html=1;align=center;verticalAlign=middle;resizable=0;points=[];" parent="QvtBToxFsBq5mHNI2KZm-1" vertex="1" connectable="0">
          <mxGeometry x="-0.0935" relative="1" as="geometry">
            <mxPoint as="offset" />
          </mxGeometry>
        </mxCell>
        <mxCell id="QvtBToxFsBq5mHNI2KZm-4" value="" style="endArrow=classicThin;startArrow=classicThin;html=1;rounded=1;startFill=1;endFill=1;" parent="1" source="_7YsXW8xgozTR5B0CZaP-16" target="_7YsXW8xgozTR5B0CZaP-17" edge="1">
          <mxGeometry width="50" height="50" relative="1" as="geometry">
            <mxPoint x="421.07142857142867" y="150" as="sourcePoint" />
            <mxPoint x="594" y="42" as="targetPoint" />
            <Array as="points">
              <mxPoint x="420" y="140" />
            </Array>
          </mxGeometry>
        </mxCell>
        <mxCell id="_7YsXW8xgozTR5B0CZaP-1" value="Solid Session" style="ellipse;whiteSpace=wrap;html=1;" parent="1" vertex="1">
          <mxGeometry x="370" y="320" width="100" height="40" as="geometry" />
        </mxCell>
        <mxCell id="_7YsXW8xgozTR5B0CZaP-2" value="Favorites" style="ellipse;whiteSpace=wrap;html=1;" parent="1" vertex="1">
          <mxGeometry x="50" y="280" width="100" height="40" as="geometry" />
        </mxCell>
        <mxCell id="_7YsXW8xgozTR5B0CZaP-5" value="Entity Viewer" style="ellipse;whiteSpace=wrap;html=1;fillColor=#E6E6E6;" parent="1" vertex="1">
          <mxGeometry x="370" y="240" width="100" height="40" as="geometry" />
        </mxCell>
        <mxCell id="_7YsXW8xgozTR5B0CZaP-8" value="Direction Search" style="ellipse;whiteSpace=wrap;html=1;" parent="1" vertex="1">
          <mxGeometry x="50" y="200" width="100" height="40" as="geometry" />
        </mxCell>
        <mxCell id="_7YsXW8xgozTR5B0CZaP-11" value="Direction Result" style="ellipse;whiteSpace=wrap;html=1;" parent="1" vertex="1">
          <mxGeometry x="210" y="200" width="100" height="40" as="geometry" />
        </mxCell>
        <mxCell id="_7YsXW8xgozTR5B0CZaP-12" value="Place Search" style="ellipse;whiteSpace=wrap;html=1;" parent="1" vertex="1">
          <mxGeometry x="50" y="40" width="100" height="40" as="geometry" />
        </mxCell>
        <mxCell id="_7YsXW8xgozTR5B0CZaP-13" value="Route Search" style="ellipse;whiteSpace=wrap;html=1;fillColor=#FFFFFF;strokeWidth=2;fontStyle=1" parent="1" vertex="1">
          <mxGeometry x="50" y="120" width="100" height="40" as="geometry" />
        </mxCell>
        <mxCell id="_7YsXW8xgozTR5B0CZaP-15" value="Place Result" style="ellipse;whiteSpace=wrap;html=1;" parent="1" vertex="1">
          <mxGeometry x="210" y="40" width="100" height="40" as="geometry" />
        </mxCell>
        <mxCell id="_7YsXW8xgozTR5B0CZaP-16" value="Route Result" style="ellipse;whiteSpace=wrap;html=1;" parent="1" vertex="1">
          <mxGeometry x="210" y="120" width="100" height="40" as="geometry" />
        </mxCell>
        <mxCell id="_7YsXW8xgozTR5B0CZaP-17" value="Detailed View&lt;br&gt;of a place" style="ellipse;whiteSpace=wrap;html=1;" parent="1" vertex="1">
          <mxGeometry x="370" y="40" width="100" height="40" as="geometry" />
        </mxCell>
        <mxCell id="lyhct0QO39G7Th9KTG0O-1" value="Directly&lt;br&gt;accessible" style="endArrow=classicThin;html=1;rounded=0;endFill=1;" parent="1" edge="1">
          <mxGeometry width="50" height="50" relative="1" as="geometry">
            <mxPoint x="470" y="149.99999999999997" as="sourcePoint" />
            <mxPoint x="570" y="149.99999999999997" as="targetPoint" />
            <mxPoint as="offset" />
          </mxGeometry>
        </mxCell>
        <mxCell id="yhYVo-RYtQYVv0zhypV3-2" value="Legend" style="text;html=1;strokeColor=none;fillColor=none;align=center;verticalAlign=middle;whiteSpace=wrap;rounded=0;fontStyle=1" parent="1" vertex="1">
          <mxGeometry x="460" y="90" width="120" height="30" as="geometry" />
        </mxCell>
        <mxCell id="8yJgjbgckoqzg-MxsotP-1" value="Home page" style="ellipse;whiteSpace=wrap;html=1;fillColor=#FFFFFF;strokeWidth=2;fontStyle=1" parent="1" vertex="1">
          <mxGeometry x="470" y="170" width="100" height="20" as="geometry" />
        </mxCell>
        <mxCell id="8yJgjbgckoqzg-MxsotP-2" value="Omitted" style="ellipse;whiteSpace=wrap;html=1;fillColor=#E6E6E6;" parent="1" vertex="1">
          <mxGeometry x="470" y="200" width="100" height="20" as="geometry" />
        </mxCell>
        <mxCell id="2F90-sWGPq6CiFoMPoY_-1" value="activate pod" style="endArrow=classicThin;html=1;rounded=0;endFill=1;" parent="1" source="_7YsXW8xgozTR5B0CZaP-1" target="_7YsXW8xgozTR5B0CZaP-2" edge="1">
          <mxGeometry width="50" height="50" relative="1" as="geometry">
            <mxPoint x="340" y="230" as="sourcePoint" />
            <mxPoint x="390" y="180" as="targetPoint" />
          </mxGeometry>
        </mxCell>
      </root>
    </mxGraphModel>
  </diagram>
</mxfile>
